<svg xmlns="http://www.w3.org/2000/svg" viewBox="0 0 36.73 38.04"><defs><style>.cls-1{fill:#231f20;stroke:#000;stroke-miterlimit:10;stroke-width:0.75px;}</style></defs><title>Asset 1</title><g id="Layer_2" data-name="Layer 2"><g id="Layer_1-2" data-name="Layer 1"><rect x="3.58" y="1.79" width="29.56" height="13.89"/><path d="M24,32.7H5.85a1.38,1.38,0,0,1-1.37-1.38V5.85A1.38,1.38,0,0,1,5.85,4.48h25a1.38,1.38,0,0,1,1.38,1.37V24.64h4.48V5.85A5.85,5.85,0,0,0,30.87,0h-25A5.85,5.85,0,0,0,0,5.85V31.32a5.85,5.85,0,0,0,5.85,5.86H24Z"/><path class="cls-1" d="M32.37,37.67H30.23v-4.2H26.54V31.52h3.69V27.47h2.14v4.05h3.68v1.95H32.37Z"/></g></g></svg>