<svg xmlns="http://www.w3.org/2000/svg" xmlns:xlink="http://www.w3.org/1999/xlink" viewBox="0 0 141.5 91.99"><defs><style>.cls-1{fill:none;}.cls-2{font-size:60.82px;}.cls-2,.cls-3,.cls-4{fill:#fff;}.cls-2,.cls-3{font-family:ProximaNova-Bold, Proxima Nova;font-weight:700;}.cls-3{font-size:23.59px;}.cls-5{clip-path:url(#clip-path);}.cls-6{fill:#231f20;}</style><clipPath id="clip-path"><rect class="cls-1" x="34.83" y="59.8" width="106.67" height="32.19"/></clipPath></defs><title>Asset 4</title><g id="Layer_2" data-name="Layer 2"><g id="Layer_1-2" data-name="Layer 1"><text class="cls-2" transform="translate(0 50.67)">Meet</text><text class="cls-3" transform="translate(1.68 76.78)">by</text><path class="cls-4" d="M138.81,60.1v2.8s0,.06-.07.06h-.13c-.05,0-.07,0-.07-.06V60.1H138s-.06,0-.06-.07v-.11a.05.05,0,0,1,.06-.06h1.31a.05.05,0,0,1,.06.06V60s0,.07-.06.07Z"/><g class="cls-5"><path class="cls-4" d="M140.62,62.31a.08.08,0,0,1-.08-.07l-.29-1.85h0l0,.6V62.9s0,.06-.07.06h-.13c-.05,0-.07,0-.07-.06v-3s0-.06.07-.06h.26a.07.07,0,0,1,.07.06l.24,1.4.11.72h0l.12-.72.23-1.4a.07.07,0,0,1,.07-.06h.27a.05.05,0,0,1,.06.06v3a.05.05,0,0,1-.06.06h-.14s-.07,0-.07-.06V61l0-.6h0L141,62.24a.08.08,0,0,1-.08.07Z"/><polygon class="cls-4" points="34.83 59.8 34.83 80.49 48.63 80.49 48.63 91.99 60.12 80.49 136.23 80.49 136.23 59.8 34.83 59.8 34.83 59.8"/></g><path class="cls-6" d="M46.24,68.64a.33.33,0,0,1-.36.36h-.62a.32.32,0,0,1-.35-.36V67.23c0-.52-.18-.85-.8-.85s-.81.33-.81.85v5.46c0,.52.19.84.81.84s.8-.32.8-.84V71.27a.32.32,0,0,1,.35-.35h.62a.32.32,0,0,1,.36.35v1.42c0,1.26-.57,1.91-2.13,1.91S42,74,42,72.69V67.23c0-1.27.58-1.91,2.13-1.91s2.13.64,2.13,1.91v1.41Z"/><path class="cls-6" d="M50.16,69.6c.72,0,.91-.36.91-1V67.4c0-.59-.19-1-.91-1h-.63V69.6Zm1.16.89L52.67,74a.34.34,0,0,1-.3.49h-.68a.37.37,0,0,1-.36-.24L50,70.66h-.46v3.52a.32.32,0,0,1-.36.35h-.62a.31.31,0,0,1-.35-.35V65.73a.32.32,0,0,1,.35-.35h1.61c1.65,0,2.24.69,2.24,2v1.24c0,1-.27,1.58-1.08,1.85Z"/><path class="cls-6" d="M57.68,65.38a.32.32,0,0,1,.36.35v.36a.32.32,0,0,1-.36.35h-2v3H57.2a.31.31,0,0,1,.35.35v.35a.32.32,0,0,1-.35.36H55.68v3h2a.32.32,0,0,1,.36.35v.36a.32.32,0,0,1-.36.35h-3a.31.31,0,0,1-.35-.35V65.73a.32.32,0,0,1,.35-.35Z"/><path class="cls-6" d="M60.89,71.57H62.3L62,69.13l-.31-2.76h-.09l-.31,2.76-.36,2.44Zm1.77,2.63-.21-1.56H60.77l-.23,1.56a.33.33,0,0,1-.35.33h-.61c-.24,0-.37-.17-.33-.43l1.29-8.38a.33.33,0,0,1,.37-.34H62.3a.35.35,0,0,1,.38.34L64,74.1c0,.26-.09.43-.33.43H63a.34.34,0,0,1-.36-.33Z"/><path class="cls-6" d="M67.46,66.44v7.74a.32.32,0,0,1-.36.35h-.62a.32.32,0,0,1-.35-.35V66.44H64.76a.32.32,0,0,1-.35-.35v-.36a.32.32,0,0,1,.35-.35h4.06a.32.32,0,0,1,.36.35v.36a.32.32,0,0,1-.36.35Z"/><path class="cls-6" d="M72,74.18a.32.32,0,0,1-.36.35H71a.32.32,0,0,1-.35-.35V65.73a.32.32,0,0,1,.35-.35h.62a.32.32,0,0,1,.36.35v8.45Z"/><path class="cls-6" d="M74.84,65.7l.75,5.08.27,2.75H76l.28-2.75L77,65.7a.32.32,0,0,1,.35-.32h.61c.25,0,.36.18.32.42L77,74.18c0,.25-.17.35-.38.35H75.21c-.22,0-.34-.1-.37-.35L73.55,65.8c0-.26.09-.42.33-.42h.61a.33.33,0,0,1,.35.32Z"/><path class="cls-6" d="M83.17,65.38a.32.32,0,0,1,.36.35v.36a.32.32,0,0,1-.36.35h-2v3h1.51a.32.32,0,0,1,.36.35v.35a.33.33,0,0,1-.36.36H81.18v3h2a.32.32,0,0,1,.36.35v.36a.32.32,0,0,1-.36.35h-3a.32.32,0,0,1-.35-.35V65.73a.32.32,0,0,1,.35-.35Z"/><path class="cls-6" d="M88.06,72.61c-.14,0-.19-.07-.21-.2L87,66.93h0l.07,1.8v5.61a.17.17,0,0,1-.19.19h-.4a.17.17,0,0,1-.19-.19V65.57a.17.17,0,0,1,.19-.19h.77a.19.19,0,0,1,.21.19l.7,4.11.33,2.15h0l.33-2.15.69-4.11c0-.14.09-.19.22-.19h.77a.17.17,0,0,1,.19.19v8.77a.17.17,0,0,1-.19.19h-.41a.17.17,0,0,1-.19-.19V68.73l.08-1.8h0L89,72.41c0,.13-.08.2-.22.2Z"/><path class="cls-6" d="M93.73,67.12v5.67c0,.69.15,1.1,1,1.1s1-.41,1-1.1V67.12c0-.69-.15-1.1-1-1.1s-1,.41-1,1.1Zm2.73,0v5.67c0,1.15-.28,1.81-1.76,1.81s-1.76-.66-1.76-1.81V67.12c0-1.13.28-1.8,1.76-1.8s1.76.67,1.76,1.8Z"/><path class="cls-6" d="M100.15,69.6c1,0,1.19-.48,1.19-1.32v-.86c0-.84-.18-1.33-1.19-1.33h-.63V69.6Zm.73.65,1.56,4c0,.12,0,.22-.13.23h-.48a.19.19,0,0,1-.2-.14l-1.57-4.08h-.54v4a.17.17,0,0,1-.19.19h-.41c-.12,0-.18-.06-.18-.19V65.57c0-.13.06-.19.18-.19h1.23c1.67,0,2,.76,2,2v.86c0,1.07-.21,1.76-1.24,2Z"/><path class="cls-6" d="M107.13,65.57a.17.17,0,0,1,.19-.19h.41a.17.17,0,0,1,.19.19v8.77a.17.17,0,0,1-.19.19h-.61c-.13,0-.18,0-.22-.19l-1.36-5.41-.38-1.74h0l.07,1.79v5.36a.17.17,0,0,1-.19.19h-.4a.17.17,0,0,1-.19-.19V65.57a.17.17,0,0,1,.19-.19h.61c.12,0,.17.05.21.19L106.78,71l.38,1.74h0l-.08-1.79V65.57Z"/><path class="cls-6" d="M111,74.34a.17.17,0,0,1-.19.19h-.41a.17.17,0,0,1-.19-.19V65.57a.17.17,0,0,1,.19-.19h.41a.17.17,0,0,1,.19.19v8.77Z"/><path class="cls-6" d="M116,65.57a.17.17,0,0,1,.19-.19h.41a.17.17,0,0,1,.19.19v8.77a.17.17,0,0,1-.19.19H116c-.13,0-.18,0-.22-.19l-1.36-5.41L114,67.19H114L114,69v5.36a.17.17,0,0,1-.19.19h-.41a.17.17,0,0,1-.19-.19V65.57a.17.17,0,0,1,.19-.19h.61c.12,0,.18.05.21.19L115.63,71l.38,1.74h0L116,70.93V65.57Z"/><path class="cls-6" d="M122.37,70a.17.17,0,0,1,.19.19v2.64c0,1.15-.28,1.81-1.76,1.81S119,73.94,119,72.79V67.12c0-1.13.28-1.8,1.76-1.8s1.76.67,1.76,1.8v1a.17.17,0,0,1-.19.19H122a.17.17,0,0,1-.19-.19v-1c0-.69-.15-1.1-1-1.1s-1,.41-1,1.1v5.67c0,.69.15,1.1,1,1.1s1-.41,1-1.1V70.66h-.87a.17.17,0,0,1-.19-.19v-.32a.17.17,0,0,1,.19-.19Z"/><path class="cls-6" d="M126.31,69l1.27,1.41a3,3,0,0,1,.77,2.37c0,1.15-.28,1.81-1.76,1.81s-1.76-.66-1.76-1.81v-1.3a.17.17,0,0,1,.19-.19h.41a.17.17,0,0,1,.19.19v1.3c0,.69.15,1.1,1,1.1s1-.41,1-1.1a2.26,2.26,0,0,0-.69-1.89l-1.27-1.41a3,3,0,0,1-.77-2.37c0-1.13.28-1.8,1.76-1.8s1.76.67,1.76,1.8v1.31a.17.17,0,0,1-.19.19h-.41a.17.17,0,0,1-.19-.19V67.12c0-.69-.15-1.1-1-1.1s-1,.41-1,1.1a2.26,2.26,0,0,0,.69,1.89Z"/></g></g></svg>